<?xml version="1.0" standalone="no"?>
<!DOCTYPE svg PUBLIC "-//W3C//DTD SVG 20010904//EN"
 "http://www.w3.org/TR/2001/REC-SVG-20010904/DTD/svg10.dtd">
<svg version="1.0" xmlns="http://www.w3.org/2000/svg"
 width="176.000000pt" height="176.000000pt" viewBox="0 0 176.000000 176.000000"
 preserveAspectRatio="xMidYMid meet">
<metadata>
Created by potrace 1.14, written by Peter Selinger 2001-2017
</metadata>
<g transform="translate(0.000000,176.000000) scale(0.100000,-0.100000)"
fill="#000000" stroke="none">
<path d="M540 1259 c0 -138 1 -150 18 -147 15 3 17 19 20 131 l3 127 124 0
c118 0 125 1 125 20 0 19 -7 20 -145 20 l-145 0 0 -151z"/>
<path d="M930 1390 c0 -19 7 -20 125 -20 l125 0 0 -125 c0 -118 1 -125 20
-125 19 0 20 7 20 145 l0 145 -145 0 c-138 0 -145 -1 -145 -20z"/>
<path d="M784 1199 c-34 -17 -44 -53 -44 -159 0 -100 0 -100 25 -100 24 0 24
1 27 108 3 107 3 107 28 107 25 0 25 0 28 -107 3 -107 3 -108 27 -108 24 0 24
1 27 107 3 97 5 108 22 111 34 7 46 -25 46 -125 0 -86 1 -93 20 -93 19 0 20 7
20 110 0 106 -1 112 -26 137 -20 20 -31 24 -57 19 -43 -9 -57 -9 -92 -3 -16 4
-40 2 -51 -4z"/>
<path d="M540 875 l0 -145 145 0 c121 0 145 2 145 15 0 12 -23 15 -127 17
l-128 3 -3 128 c-2 104 -5 127 -17 127 -13 0 -15 -24 -15 -145z"/>
<path d="M1178 893 l-3 -128 -122 -3 c-100 -2 -123 -5 -123 -17 0 -13 24 -15
145 -15 l145 0 0 145 c0 138 -1 145 -20 145 -18 0 -20 -8 -22 -127z"/>
<path d="M590 540 c-6 -10 -10 -59 -10 -109 0 -74 3 -91 15 -91 12 0 15 17 15
90 0 72 3 92 15 96 33 13 45 -15 45 -102 0 -68 3 -84 15 -84 12 0 15 16 15 83
0 93 10 118 37 101 15 -9 19 -28 21 -98 2 -67 6 -86 17 -86 12 0 15 18 15 94
0 120 -3 123 -110 124 -68 0 -82 -3 -90 -18z"/>
<path d="M1025 535 c-23 -22 -25 -32 -25 -110 0 -69 3 -85 15 -85 9 0 15 9 15
25 0 23 3 25 50 25 47 0 50 -2 50 -25 0 -19 5 -25 21 -25 20 0 21 4 18 84 -4
73 -7 88 -28 110 -33 35 -83 35 -116 1z m83 -21 c15 -11 22 -25 22 -50 l0 -34
-50 0 c-49 0 -50 1 -50 30 0 27 29 70 48 70 4 0 18 -7 30 -16z"/>
<path d="M830 485 c0 -11 11 -15 36 -15 l36 0 -36 -65 -36 -65 65 0 c58 0 65
2 65 20 0 16 -7 20 -35 20 l-35 0 27 53 c15 28 29 55 31 60 2 4 -24 7 -57 7
-48 0 -61 -3 -61 -15z"/>
</g>
</svg>
